<svg width="14" height="18" viewBox="0 0 14 18" fill="none" xmlns="http://www.w3.org/2000/svg">
<rect width="13.125" height="17.5034" fill="white"/>
<path d="M13.125 8.75171C13.1231 9.12401 13.0384 9.49123 12.877 9.82671C12.7155 10.1622 12.4814 10.4575 12.1917 10.6913L4.75417 16.8309C4.30641 17.1896 3.76688 17.4154 3.19706 17.4824C2.62724 17.5495 2.05004 17.4551 1.53125 17.21C1.08037 17.0113 0.696228 16.687 0.4247 16.2758C0.153171 15.8646 0.00573571 15.384 0 14.8913L0 2.61213C0.00573571 2.11943 0.153171 1.63879 0.4247 1.22762C0.696228 0.816444 1.08037 0.492123 1.53125 0.293381C2.05004 0.0483341 2.62724 -0.046051 3.19706 0.0209866C3.76688 0.088026 4.30641 0.313787 4.75417 0.672546L12.1917 6.81213C12.4814 7.0459 12.7155 7.34124 12.877 7.67672C13.0384 8.0122 13.1231 8.37942 13.125 8.75171ZM2.91667 14.4538L9.94583 8.75171L2.91667 2.91838L2.91667 14.4538Z" fill="black"/>
</svg>
