<svg width="170" height="81" viewBox="0 0 170 81" fill="none" xmlns="http://www.w3.org/2000/svg">
<path d="M4 15.2451C22.9437 3.03324 34.3589 0.675412 53.0881 10.4909C60.2488 14.2435 68.7657 14.4154 75.9251 10.6604C91.5629 2.45862 103.112 1.10708 122.852 10.7133C130.328 14.3516 139.109 13.8704 146.453 9.97325C164.729 0.275698 178.866 2.66217 198.299 15.2449" stroke="#FDCACA" stroke-width="7.19626" stroke-linecap="round"/>
<path d="M4 45.2185C22.8218 32.5797 34.2116 30.0738 52.7274 40.0703C60.089 44.0448 68.9327 44.2275 76.2898 40.2445C91.6399 31.934 103.112 30.5872 122.46 40.3001C130.146 44.1586 139.257 43.6505 146.808 39.5325C164.912 29.658 178.991 32.1961 198.299 45.2183" stroke="#FDCACA" stroke-width="7.19626" stroke-linecap="round"/>
<path d="M4 75.6933C22.9437 63.4815 34.3589 61.1237 53.0881 70.9391C60.2488 74.6918 68.7657 74.8636 75.9251 71.1086C91.5629 62.9069 103.112 61.5553 122.852 71.1616C130.328 74.7999 139.109 74.3186 146.453 70.4215C164.729 60.7239 178.866 63.1104 198.299 75.6931" stroke="#FDCACA" stroke-width="7.19626" stroke-linecap="round"/>
</svg>
