<svg width="86" height="83" viewBox="0 0 86 83" fill="none" xmlns="http://www.w3.org/2000/svg">
<rect x="0.934783" y="1.67404" width="84.1304" height="80.3913" rx="40.1957" fill="#FDCACA"/>
<path d="M57.5686 64.3041C56.8246 64.3041 56.0972 64.0848 55.4786 63.674C54.86 63.2631 54.3778 62.6791 54.0931 61.9959C53.8083 61.3127 53.7338 60.5609 53.879 59.8355C54.0241 59.1102 54.3824 58.444 54.9085 57.921C55.4346 57.3981 56.1049 57.042 56.8347 56.8977C57.5644 56.7534 58.3208 56.8275 59.0082 57.1105C59.6956 57.3935 60.2831 57.8728 60.6965 58.4877C61.1099 59.1026 61.3305 59.8255 61.3305 60.565C61.3305 61.5567 60.9342 62.5077 60.2287 63.209C59.5232 63.9102 58.5663 64.3041 57.5686 64.3041ZM32.4892 64.3041C31.7452 64.3041 31.0179 64.0848 30.3992 63.674C29.7806 63.2631 29.2984 62.6791 29.0137 61.9959C28.7289 61.3127 28.6544 60.5609 28.7996 59.8355C28.9447 59.1102 29.303 58.444 29.8291 57.921C30.3553 57.3981 31.0256 57.042 31.7553 56.8977C32.485 56.7534 33.2414 56.8275 33.9288 57.1105C34.6162 57.3935 35.2038 57.8728 35.6171 58.4877C36.0305 59.1026 36.2511 59.8255 36.2511 60.565C36.2511 61.5567 35.8548 62.5077 35.1493 63.209C34.4438 63.9102 33.4869 64.3041 32.4892 64.3041ZM56.3146 51.8404H33.7432C33.1928 51.8412 32.6574 51.662 32.2196 51.3304C31.7817 50.9989 31.4658 50.5334 31.3205 50.0057L24.3033 24.4201H21.2035C20.5383 24.4201 19.9004 24.1575 19.4301 23.69C18.9598 23.2225 18.6956 22.5884 18.6956 21.9273C18.6956 21.2662 18.9598 20.6322 19.4301 20.1647C19.9004 19.6972 20.5383 19.4346 21.2035 19.4346H26.2194C26.7701 19.4339 27.3058 19.6135 27.7436 19.9455C28.1815 20.2775 28.4972 20.7436 28.642 21.2717L30.1869 26.9128H62.2885C63.1434 26.9129 63.9841 27.1301 64.7308 27.5438C65.4775 27.9576 66.1054 28.5541 66.5549 29.2769C67.0044 29.9996 67.2606 30.8246 67.2991 31.6734C67.3377 32.5222 67.1574 33.3668 66.7752 34.1269L58.5592 50.4619C58.3509 50.8763 58.0305 51.2247 57.6341 51.4682C57.2376 51.7117 56.7807 51.8406 56.3146 51.8404ZM31.5538 31.8983L35.6593 46.8549H54.7647L62.2885 31.8983H31.5538Z" fill="#1C1C1C"/>
<rect x="0.934783" y="1.67404" width="84.1304" height="80.3913" rx="40.1957" stroke="black" stroke-width="1.86957"/>
</svg>
