<svg width="203" height="212" viewBox="0 0 203 212" fill="none" xmlns="http://www.w3.org/2000/svg">
<path d="M202.625 68.7159C202.625 125.002 157.347 170.625 101.5 170.625C45.6527 170.625 0.374633 125.002 0.374633 68.7159C0.374633 54.664 4.11149 43.386 10.5731 34.3655C17.0373 25.3415 26.2449 18.554 37.2199 13.5147C59.1802 3.43146 88.1564 0.374633 116.17 0.374633C144.194 0.374633 165.796 3.43587 180.394 13.4828C194.954 23.5039 202.625 40.5381 202.625 68.7159Z" fill="#CAD9FF" stroke="black" stroke-width="0.749267"/>
<path d="M73.1583 106L53.8302 61.2H65.0303L81.9263 100.88H75.3343L92.4863 61.2H102.79L83.3983 106H73.1583ZM115.811 95.76L115.235 83.792L136.675 61.2H148.195L128.867 82L123.107 88.144L115.811 95.76ZM106.531 106V61.2H116.835V106H106.531ZM137.187 106L121.251 86.48L128.035 79.12L149.283 106H137.187Z" fill="#5B6D9C"/>
<path d="M44.328 206L40.272 199.808L42.168 198.656L47.064 206H44.328ZM37.632 200.624V198.656H41.76V200.624H37.632ZM42.384 199.904L40.2 199.616L44.256 193.28H46.728L42.384 199.904ZM30.048 206H27.312L32.184 198.656L34.08 199.808L30.048 206ZM38.328 206H36.024V193.28H38.328V206ZM36.72 200.624H32.616V198.656H36.72V200.624ZM31.992 199.904L27.648 193.28H30.096L34.152 199.616L31.992 199.904ZM49.5992 206V193.28H51.9752L57.4472 202.688H56.4872L62.1032 193.28H64.2632V206H62.1752V195.872L62.5592 196.088L57.4232 204.56H56.4152L51.2552 195.92L51.7112 195.824V206H49.5992ZM68.7476 206V193.28H71.0516V202.544L78.8516 193.28H80.9396V206H78.6356V196.736L70.8596 206H68.7476ZM87.9317 206V194.696L88.5077 195.296H83.2757V193.28H94.8917V195.296H89.6837L90.2357 194.696V206H87.9317ZM102.349 206.144C100.989 206.144 99.7891 205.864 98.7491 205.304C97.7251 204.744 96.9251 203.976 96.3491 203C95.7891 202.024 95.5091 200.904 95.5091 199.64C95.5091 198.376 95.7811 197.256 96.3251 196.28C96.8851 195.304 97.6451 194.544 98.6051 194C99.5811 193.44 100.677 193.16 101.893 193.16C103.125 193.16 104.213 193.432 105.157 193.976C106.101 194.52 106.837 195.288 107.365 196.28C107.909 197.256 108.181 198.4 108.181 199.712C108.181 199.808 108.173 199.92 108.157 200.048C108.157 200.176 108.149 200.296 108.133 200.408H97.3091V198.752H106.933L105.997 199.328C106.013 198.512 105.845 197.784 105.493 197.144C105.141 196.504 104.653 196.008 104.029 195.656C103.421 195.288 102.709 195.104 101.893 195.104C101.093 195.104 100.381 195.288 99.7571 195.656C99.1331 196.008 98.6451 196.512 98.2931 197.168C97.9411 197.808 97.7651 198.544 97.7651 199.376V199.76C97.7651 200.608 97.9571 201.368 98.3411 202.04C98.7411 202.696 99.2931 203.208 99.9971 203.576C100.701 203.944 101.509 204.128 102.421 204.128C103.173 204.128 103.853 204 104.461 203.744C105.085 203.488 105.629 203.104 106.093 202.592L107.365 204.08C106.789 204.752 106.069 205.264 105.205 205.616C104.357 205.968 103.405 206.144 102.349 206.144ZM123.745 206.144C122.449 206.144 121.289 205.864 120.265 205.304C119.257 204.744 118.465 203.976 117.889 203C117.313 202.024 117.025 200.904 117.025 199.64C117.025 198.376 117.313 197.256 117.889 196.28C118.465 195.304 119.257 194.544 120.265 194C121.289 193.44 122.449 193.16 123.745 193.16C124.897 193.16 125.921 193.392 126.817 193.856C127.729 194.304 128.433 194.976 128.929 195.872L127.177 197C126.761 196.376 126.249 195.92 125.641 195.632C125.049 195.328 124.409 195.176 123.721 195.176C122.889 195.176 122.145 195.36 121.489 195.728C120.833 196.096 120.313 196.616 119.929 197.288C119.545 197.944 119.353 198.728 119.353 199.64C119.353 200.552 119.545 201.344 119.929 202.016C120.313 202.688 120.833 203.208 121.489 203.576C122.145 203.944 122.889 204.128 123.721 204.128C124.409 204.128 125.049 203.984 125.641 203.696C126.249 203.392 126.761 202.928 127.177 202.304L128.929 203.408C128.433 204.288 127.729 204.968 126.817 205.448C125.921 205.912 124.897 206.144 123.745 206.144ZM131.912 206V193.28H134.216V198.488H138.056V200.624H134.216V206H131.912ZM143.168 206.144C141.92 206.144 140.808 205.864 139.832 205.304C138.872 204.744 138.112 203.976 137.552 203C136.992 202.008 136.712 200.888 136.712 199.64C136.712 198.376 136.992 197.256 137.552 196.28C138.112 195.288 138.872 194.52 139.832 193.976C140.808 193.432 141.92 193.16 143.168 193.16C144.4 193.16 145.504 193.432 146.48 193.976C147.456 194.52 148.224 195.288 148.784 196.28C149.344 197.256 149.624 198.376 149.624 199.64C149.624 200.904 149.344 202.024 148.784 203C148.224 203.976 147.456 204.744 146.48 205.304C145.504 205.864 144.4 206.144 143.168 206.144ZM143.168 204.128C143.968 204.128 144.68 203.944 145.304 203.576C145.928 203.192 146.424 202.672 146.792 202.016C147.16 201.344 147.344 200.552 147.344 199.64C147.344 198.728 147.16 197.944 146.792 197.288C146.424 196.616 145.928 196.096 145.304 195.728C144.68 195.36 143.968 195.176 143.168 195.176C142.384 195.176 141.672 195.36 141.032 195.728C140.408 196.096 139.912 196.616 139.544 197.288C139.176 197.944 138.992 198.728 138.992 199.64C138.992 200.552 139.176 201.344 139.544 202.016C139.912 202.672 140.408 203.192 141.032 203.576C141.672 203.944 142.384 204.128 143.168 204.128ZM161.529 204.92V195.296H156.009L155.889 197.744C155.857 198.544 155.801 199.32 155.721 200.072C155.657 200.808 155.545 201.488 155.385 202.112C155.241 202.736 155.025 203.248 154.737 203.648C154.449 204.048 154.065 204.296 153.585 204.392L151.305 203.984C151.801 204 152.201 203.84 152.505 203.504C152.809 203.152 153.041 202.672 153.201 202.064C153.377 201.456 153.505 200.768 153.585 200C153.665 199.216 153.729 198.408 153.777 197.576L153.969 193.28H163.833V204.92H161.529ZM150.801 208.952V203.984H165.777V208.952H163.617V206H152.985V208.952H150.801ZM176.579 206V203.312L176.459 202.808V198.224C176.459 197.248 176.171 196.496 175.595 195.968C175.035 195.424 174.187 195.152 173.051 195.152C172.299 195.152 171.563 195.28 170.843 195.536C170.123 195.776 169.515 196.104 169.019 196.52L168.059 194.792C168.715 194.264 169.499 193.864 170.411 193.592C171.339 193.304 172.307 193.16 173.315 193.16C175.059 193.16 176.403 193.584 177.347 194.432C178.291 195.28 178.763 196.576 178.763 198.32V206H176.579ZM172.403 206.144C171.459 206.144 170.627 205.984 169.907 205.664C169.203 205.344 168.659 204.904 168.275 204.344C167.891 203.768 167.699 203.12 167.699 202.4C167.699 201.712 167.859 201.088 168.179 200.528C168.515 199.968 169.051 199.52 169.787 199.184C170.539 198.848 171.547 198.68 172.811 198.68H176.843V200.336H172.907C171.755 200.336 170.979 200.528 170.579 200.912C170.179 201.296 169.979 201.76 169.979 202.304C169.979 202.928 170.227 203.432 170.723 203.816C171.219 204.184 171.907 204.368 172.787 204.368C173.651 204.368 174.403 204.176 175.043 203.792C175.699 203.408 176.171 202.848 176.459 202.112L176.915 203.696C176.611 204.448 176.075 205.048 175.307 205.496C174.539 205.928 173.571 206.144 172.403 206.144Z" fill="black"/>
</svg>
