<svg width="618" height="21" viewBox="0 0 618 21" fill="none" xmlns="http://www.w3.org/2000/svg">
<path d="M1.5 19.5C7.7 11.3491 24.5745 1 50.7273 1C67.4722 1 81.7217 7.54377 91.5819 14.614C98.2438 19.3909 108.855 19.1027 115.418 14.1916C124.648 7.28533 138.302 1 156.127 1C171.584 1 184.015 6.329 192.893 12.6377C200.518 18.056 214.719 18.3602 222.452 13.0957C232.009 6.58911 245.63 1 263.218 1C278.09 1 289.041 4.99579 296.778 10.1634C304.945 15.6175 320.767 17.4449 329.005 12.0979C338.356 6.02798 350.699 1 365.236 1C379.335 1 390.185 5.72902 397.97 11.5512C405.549 17.2197 419.256 17.749 426.969 12.263C435.606 6.11947 448.009 1 465.564 1C481.848 1 493.745 5.40526 501.952 10.9468C509.934 16.3368 525.255 18.4397 533.362 13.239C543.599 6.67138 557.215 1 572.655 1C600.16 1 610.8 11.8679 617 19" stroke="white" stroke-width="2" stroke-linecap="round"/>
</svg>
